<svg width="1169" height="322" viewBox="0 0 1169 322" fill="none" xmlns="http://www.w3.org/2000/svg">
<rect width="19" height="322" fill="#597085"/>
<rect x="24" width="8" height="322" fill="#597085"/>
<rect x="37" width="23" height="322" fill="#597085"/>
<rect x="65" width="17" height="322" fill="#597085"/>
<rect x="87" width="4" height="322" fill="#597085"/>
<rect x="96" width="4" height="322" fill="#597085"/>
<rect x="105" width="19" height="322" fill="#597085"/>
<rect x="129" width="8" height="322" fill="#597085"/>
<rect x="142" width="13" height="322" fill="#597085"/>
<rect x="160" width="17" height="322" fill="#597085"/>
<rect x="182" width="4" height="322" fill="#597085"/>
<rect x="191" width="4" height="322" fill="#597085"/>
<rect x="200" width="19" height="322" fill="#597085"/>
<rect x="224" width="8" height="322" fill="#597085"/>
<rect x="237" width="20" height="322" fill="#597085"/>
<rect x="262" width="17" height="322" fill="#597085"/>
<rect x="284" width="4" height="322" fill="#597085"/>
<rect x="293" width="4" height="322" fill="#597085"/>
<rect x="302" width="19" height="322" fill="#597085"/>
<rect x="326" width="8" height="322" fill="#597085"/>
<rect x="339" width="22" height="322" fill="#597085"/>
<rect x="366" width="17" height="322" fill="#597085"/>
<rect x="388" width="4" height="322" fill="#597085"/>
<rect x="397" width="4" height="322" fill="#597085"/>
<rect x="406" width="40" height="322" fill="#597085"/>
<rect x="451" width="8" height="322" fill="#597085"/>
<rect x="464" width="4" height="322" fill="#597085"/>
<rect x="473" width="17" height="322" fill="#597085"/>
<rect x="495" width="4" height="322" fill="#597085"/>
<rect x="504" width="4" height="322" fill="#597085"/>
<rect x="513" width="19" height="322" fill="#597085"/>
<rect x="537" width="8" height="322" fill="#597085"/>
<rect x="550" width="16" height="322" fill="#597085"/>
<rect x="571" width="30" height="322" fill="#597085"/>
<rect x="606" width="19" height="322" fill="#597085"/>
<rect x="630" width="8" height="322" fill="#597085"/>
<rect x="643" width="23" height="322" fill="#597085"/>
<rect x="671" width="17" height="322" fill="#597085"/>
<rect x="693" width="4" height="322" fill="#597085"/>
<rect x="702" width="4" height="322" fill="#597085"/>
<rect x="711" width="19" height="322" fill="#597085"/>
<rect x="735" width="8" height="322" fill="#597085"/>
<rect x="748" width="13" height="322" fill="#597085"/>
<rect x="766" width="17" height="322" fill="#597085"/>
<rect x="788" width="4" height="322" fill="#597085"/>
<rect x="797" width="4" height="322" fill="#597085"/>
<rect x="806" width="19" height="322" fill="#597085"/>
<rect x="830" width="8" height="322" fill="#597085"/>
<rect x="843" width="20" height="322" fill="#597085"/>
<rect x="868" width="17" height="322" fill="#597085"/>
<rect x="890" width="4" height="322" fill="#597085"/>
<rect x="899" width="4" height="322" fill="#597085"/>
<rect x="908" width="19" height="322" fill="#597085"/>
<rect x="932" width="8" height="322" fill="#597085"/>
<rect x="945" width="22" height="322" fill="#597085"/>
<rect x="972" width="17" height="322" fill="#597085"/>
<rect x="994" width="4" height="322" fill="#597085"/>
<rect x="1003" width="4" height="322" fill="#597085"/>
<rect x="1012" width="40" height="322" fill="#597085"/>
<rect x="1057" width="8" height="322" fill="#597085"/>
<rect x="1070" width="4" height="322" fill="#597085"/>
<rect x="1079" width="17" height="322" fill="#597085"/>
<rect x="1101" width="4" height="322" fill="#597085"/>
<rect x="1110" width="4" height="322" fill="#597085"/>
<rect x="1119" width="19" height="322" fill="#597085"/>
<rect x="1143" width="8" height="322" fill="#597085"/>
<rect x="1156" width="16" height="322" fill="#597085"/>
</svg>
